<?xml version="1.0" encoding="utf-8"?>
<!-- Generator: Adobe Illustrator 24.2.3, SVG Export Plug-In . SVG Version: 6.00 Build 0)  -->
<svg version="1.1" id="Layer_1" xmlns="http://www.w3.org/2000/svg" xmlns:xlink="http://www.w3.org/1999/xlink" x="0px" y="0px"
	 viewBox="0 0 13 10" style="enable-background:new 0 0 13 10;" xml:space="preserve">
<style type="text/css">
	.st0{fill-rule:evenodd;clip-rule:evenodd;}
</style>
<path class="st0" d="M6,2.8l0,0.4L5.6,3.1C4,2.9,2.7,2.3,1.5,1.1L0.9,0.6L0.8,1C0.5,1.9,0.7,2.9,1.3,3.6C1.7,3.9,1.6,4,1,3.8
	C0.8,3.7,0.6,3.6,0.6,3.7C0.5,3.7,0.7,4.5,0.9,4.8c0.2,0.4,0.7,0.9,1.2,1.1l0.4,0.2L2,6.1c-0.5,0-0.5,0-0.4,0.2
	c0.2,0.6,0.9,1.2,1.6,1.4l0.5,0.2L3.2,8.2C2.5,8.6,1.7,8.8,0.9,8.8c-0.4,0-0.7,0-0.7,0.1c0,0.1,1,0.6,1.7,0.8c1.8,0.6,4,0.3,5.6-0.6
	c1.2-0.7,2.3-2,2.9-3.4c0.3-0.7,0.6-2,0.6-2.6c0-0.4,0-0.5,0.5-0.9c0.3-0.3,0.6-0.6,0.6-0.7c0.1-0.2,0.1-0.2-0.4,0
	c-0.7,0.3-0.8,0.2-0.5-0.2c0.3-0.3,0.6-0.8,0.6-0.9c0,0-0.1,0-0.3,0.1c-0.2,0.1-0.5,0.2-0.8,0.3l-0.5,0.1L9.9,0.6
	C9.7,0.5,9.3,0.3,9.2,0.2c-0.4-0.1-1.1-0.1-1.5,0C6.6,0.7,5.9,1.7,6,2.8L6,2.8z"/>
</svg>
