<?xml version="1.0" encoding="utf-8"?>
<!-- Generator: Adobe Illustrator 24.2.3, SVG Export Plug-In . SVG Version: 6.00 Build 0)  -->
<svg version="1.1" id="Layer_1" xmlns="http://www.w3.org/2000/svg" xmlns:xlink="http://www.w3.org/1999/xlink" x="0px" y="0px"
	 viewBox="0 0 13 13" style="enable-background:new 0 0 13 13;" xml:space="preserve">
<path d="M12,2.9L9.6,5.2c-0.1,0.1-0.3,0.1-0.4,0C9.1,5.2,9.1,5,9.3,4.9l2.4-2.4c-0.2-0.2-0.3-0.3-0.5-0.5L8.7,4.3
	c-0.1,0.1-0.3,0.1-0.4,0C8.2,4.3,8.2,4.1,8.4,4l2.4-2.4c-0.3-0.3-0.5-0.5-0.5-0.5L7.6,3.4C7.1,4,6.8,5.1,7.1,5.8
	c-1.4,1-4.6,3.5-5.1,4c-0.8,0.8-0.4,1.8-0.3,1.9l0,0l0,0c0.1,0.1,1.1,0.5,1.9-0.3C4,11,6.5,7.8,7.5,6.4C8.4,6.9,9.6,6.6,10.2,6
	l2.3-2.6C12.5,3.4,12.3,3.2,12,2.9z"/>
<path d="M0.8,1.9l0.3-0.3C2,0.7,4.3,2.7,4.9,3.3s0.9,1.8,0.4,2.6c1.4,1.1,4.6,3.5,5,3.9c0.8,0.8,0.4,1.8,0.3,1.9l0,0l0,0
	c-0.1,0.1-1.1,0.5-1.9-0.3c-0.4-0.4-2.9-3.7-4-5.1C3.9,6.7,2.9,6.4,2.3,5.8S-0.2,2.9,0.8,1.9z"/>
</svg>
