<?xml version="1.0" encoding="utf-8"?>
<!-- Generator: Adobe Illustrator 24.2.3, SVG Export Plug-In . SVG Version: 6.00 Build 0)  -->
<svg version="1.1" id="Layer_1" xmlns="http://www.w3.org/2000/svg" xmlns:xlink="http://www.w3.org/1999/xlink" x="0px" y="0px"
	 viewBox="0 0 14 13" style="enable-background:new 0 0 14 13;" xml:space="preserve">
<path d="M13.1,11.7H3.5V1.2h9.6V11.7z M13.1,0.4H3.5C3,0.4,2.6,0.8,2.6,1.2v2.2H0.9C0.4,3.4,0,3.8,0,4.3v5.2V11
	c0,0.8,0.8,1.5,1.8,1.5h1.7l0,0h7.4h2.2c0.5,0,0.9-0.4,0.9-0.9V1.2C14,0.8,13.6,0.4,13.1,0.4"/>
<polygon points="10.9,3 5.2,3 5.2,3.9 11.4,3.9 11.4,3 "/>
<rect x="5.2" y="4.7" width="6.1" height="0.9"/>
<rect x="5.2" y="6.5" width="6.1" height="0.9"/>
</svg>
