<svg xmlns="http://www.w3.org/2000/svg" x="0px" y="0px"
width="50" height="50"
viewBox="0 0 172 172"
style=" fill:#000000;"><g fill="none" fill-rule="nonzero" stroke="none" stroke-width="1" stroke-linecap="butt" stroke-linejoin="miter" stroke-miterlimit="10" stroke-dasharray="" stroke-dashoffset="0" font-family="none" font-weight="none" font-size="none" text-anchor="none" style="mix-blend-mode: normal"><path d="M0,172v-172h172v172z" fill="none"></path><g fill="#ecf0f1"><path d="M153.17406,119.54c-3.70875,8.23719 -5.49594,11.91906 -10.26625,19.18875c-6.67844,10.15875 -16.09813,22.84375 -27.735,22.92438c-10.36031,0.09406 -13.03438,-6.75906 -27.10344,-6.63813c-14.05563,0.06719 -16.985,6.7725 -27.35875,6.665c-11.65031,-0.1075 -20.55938,-11.52937 -27.23781,-21.67469c-18.67813,-28.44719 -20.65344,-61.79906 -9.11063,-79.53656c8.17,-12.5775 21.08344,-19.96812 33.2175,-19.96812c12.3625,0 20.12938,6.78594 30.34188,6.78594c9.91687,0 15.95031,-6.79938 30.24781,-6.79938c10.80375,0 22.22562,5.88563 30.39562,16.04438c-26.71375,14.64687 -22.37344,52.79594 4.60906,63.00844zM107.31188,29.1325c5.20031,-6.67844 9.15094,-16.09812 7.71312,-25.6925c-8.47906,0.57781 -18.39594,5.99313 -24.1875,13.0075c-5.25406,6.39625 -9.60781,15.88313 -7.91469,25.06094c9.25844,0.29563 18.83937,-5.22719 24.38906,-12.37594z"></path></g></g></svg>